<?xml version="1.0" encoding="UTF-8" standalone="no"?>
<!DOCTYPE svg PUBLIC "-//W3C//DTD SVG 1.1//EN" "http://www.w3.org/Graphics/SVG/1.1/DTD/svg11.dtd">
<svg width="100%" height="100%" viewBox="0 0 334 167" version="1.1" xmlns="http://www.w3.org/2000/svg" xmlns:xlink="http://www.w3.org/1999/xlink" xml:space="preserve" xmlns:serif="http://www.serif.com/" style="fill-rule:evenodd;clip-rule:evenodd;stroke-linejoin:round;stroke-miterlimit:1.41421;">
    <g transform="matrix(1.34877,0,0,1.34877,-360.509,-346.237)">
        <g id="Livello_1-2">
            <g id="Layer-1" serif:id="Layer 1">
                <g transform="matrix(1,0,0,1,469.11,319.338)">
                    <path d="M0,-26.676C-2.889,-26.676 -5.224,-24.718 -6.452,-22.086C-5.615,-22.032 -4.832,-22.032 -4.171,-22.032C1.566,-22.032 3.295,-23.112 3.268,-24.611C3.24,-25.69 2.134,-26.676 0,-26.676M0,-26.676C-2.889,-26.676 -5.224,-24.718 -6.452,-22.086C-5.615,-22.032 -4.832,-22.032 -4.171,-22.032C1.566,-22.032 3.295,-23.112 3.268,-24.611C3.24,-25.69 2.134,-26.676 0,-26.676M0,-26.676C-2.889,-26.676 -5.224,-24.718 -6.452,-22.086C-5.615,-22.032 -4.832,-22.032 -4.171,-22.032C1.566,-22.032 3.295,-23.112 3.268,-24.611C3.24,-25.69 2.134,-26.676 0,-26.676M0,-26.676C-2.889,-26.676 -5.224,-24.718 -6.452,-22.086C-5.615,-22.032 -4.832,-22.032 -4.171,-22.032C1.566,-22.032 3.295,-23.112 3.268,-24.611C3.24,-25.69 2.134,-26.676 0,-26.676M-62.287,-25.231C-64.096,-25.231 -65.824,-24.259 -67.025,-22.693L-67.593,-19.899C-68.214,-16.227 -66.594,-13.594 -63.191,-13.594C-59.723,-13.594 -57.886,-16.956 -57.98,-20.574C-58.048,-23.368 -59.682,-25.231 -62.287,-25.231M0,-26.676C-2.889,-26.676 -5.224,-24.718 -6.452,-22.086C-5.615,-22.032 -4.832,-22.032 -4.171,-22.032C1.566,-22.032 3.295,-23.112 3.268,-24.611C3.24,-25.69 2.134,-26.676 0,-26.676M0,-26.676C-2.889,-26.676 -5.224,-24.718 -6.452,-22.086C-5.615,-22.032 -4.832,-22.032 -4.171,-22.032C1.566,-22.032 3.295,-23.112 3.268,-24.611C3.24,-25.69 2.134,-26.676 0,-26.676M-62.287,-25.231C-64.096,-25.231 -65.824,-24.259 -67.025,-22.693L-67.593,-19.899C-68.214,-16.227 -66.594,-13.594 -63.191,-13.594C-59.723,-13.594 -57.886,-16.956 -57.98,-20.574C-58.048,-23.368 -59.682,-25.231 -62.287,-25.231M-93.741,-25.65C-97.4,-25.65 -99.694,-21.924 -99.6,-18.144C-99.533,-15.349 -97.629,-13.284 -94.983,-13.284C-91.312,-13.284 -89.03,-17.01 -89.125,-20.83C-89.192,-23.571 -91.109,-25.65 -93.741,-25.65M-62.287,-25.231C-64.096,-25.231 -65.824,-24.259 -67.025,-22.693L-67.593,-19.899C-68.214,-16.227 -66.594,-13.594 -63.191,-13.594C-59.723,-13.594 -57.886,-16.956 -57.98,-20.574C-58.048,-23.368 -59.682,-25.231 -62.287,-25.231M0,-26.676C-2.889,-26.676 -5.224,-24.718 -6.452,-22.086C-5.615,-22.032 -4.832,-22.032 -4.171,-22.032C1.566,-22.032 3.295,-23.112 3.268,-24.611C3.24,-25.69 2.134,-26.676 0,-26.676M0,-26.676C-2.889,-26.676 -5.224,-24.718 -6.452,-22.086C-5.615,-22.032 -4.832,-22.032 -4.171,-22.032C1.566,-22.032 3.295,-23.112 3.268,-24.611C3.24,-25.69 2.134,-26.676 0,-26.676M-62.287,-25.231C-64.096,-25.231 -65.824,-24.259 -67.025,-22.693L-67.593,-19.899C-68.214,-16.227 -66.594,-13.594 -63.191,-13.594C-59.723,-13.594 -57.886,-16.956 -57.98,-20.574C-58.048,-23.368 -59.682,-25.231 -62.287,-25.231M-93.741,-25.65C-97.4,-25.65 -99.694,-21.924 -99.6,-18.144C-99.533,-15.349 -97.629,-13.284 -94.983,-13.284C-91.312,-13.284 -89.03,-17.01 -89.125,-20.83C-89.192,-23.571 -91.109,-25.65 -93.741,-25.65M-150.278,3.631C-152.6,3.631 -154.355,5.845 -154.287,8.626C-154.247,10.475 -153.113,11.892 -151.142,11.892C-148.82,11.892 -147.065,9.678 -147.133,6.898C-147.173,5.035 -148.32,3.631 -150.278,3.631M-93.741,-25.65C-97.4,-25.65 -99.694,-21.924 -99.6,-18.144C-99.533,-15.349 -97.629,-13.284 -94.983,-13.284C-91.312,-13.284 -89.03,-17.01 -89.125,-20.83C-89.192,-23.571 -91.109,-25.65 -93.741,-25.65M-62.287,-25.231C-64.096,-25.231 -65.824,-24.259 -67.025,-22.693L-67.593,-19.899C-68.214,-16.227 -66.594,-13.594 -63.191,-13.594C-59.723,-13.594 -57.886,-16.956 -57.98,-20.574C-58.048,-23.368 -59.682,-25.231 -62.287,-25.231M0,-26.676C-2.889,-26.676 -5.224,-24.718 -6.452,-22.086C-5.615,-22.032 -4.832,-22.032 -4.171,-22.032C1.566,-22.032 3.295,-23.112 3.268,-24.611C3.24,-25.69 2.134,-26.676 0,-26.676M0,-26.676C-2.889,-26.676 -5.224,-24.718 -6.452,-22.086C-5.615,-22.032 -4.832,-22.032 -4.171,-22.032C1.566,-22.032 3.295,-23.112 3.268,-24.611C3.24,-25.69 2.134,-26.676 0,-26.676M-62.287,-25.231C-64.096,-25.231 -65.824,-24.259 -67.025,-22.693L-67.593,-19.899C-68.214,-16.227 -66.594,-13.594 -63.191,-13.594C-59.723,-13.594 -57.886,-16.956 -57.98,-20.574C-58.048,-23.368 -59.682,-25.231 -62.287,-25.231M-150.278,3.631C-152.6,3.631 -154.355,5.845 -154.287,8.626C-154.247,10.475 -153.113,11.892 -151.142,11.892C-148.82,11.892 -147.065,9.678 -147.133,6.898C-147.173,5.035 -148.32,3.631 -150.278,3.631M-93.741,-25.65C-97.4,-25.65 -99.694,-21.924 -99.6,-18.144C-99.533,-15.349 -97.629,-13.284 -94.983,-13.284C-91.312,-13.284 -89.03,-17.01 -89.125,-20.83C-89.192,-23.571 -91.109,-25.65 -93.741,-25.65M-150.278,3.631C-152.6,3.631 -154.355,5.845 -154.287,8.626C-154.247,10.475 -153.113,11.892 -151.142,11.892C-148.82,11.892 -147.065,9.678 -147.133,6.898C-147.173,5.035 -148.32,3.631 -150.278,3.631M-93.741,-25.65C-97.4,-25.65 -99.694,-21.924 -99.6,-18.144C-99.533,-15.349 -97.629,-13.284 -94.983,-13.284C-91.312,-13.284 -89.03,-17.01 -89.125,-20.83C-89.192,-23.571 -91.109,-25.65 -93.741,-25.65M-62.287,-25.231C-64.096,-25.231 -65.824,-24.259 -67.025,-22.693L-67.593,-19.899C-68.214,-16.227 -66.594,-13.594 -63.191,-13.594C-59.723,-13.594 -57.886,-16.956 -57.98,-20.574C-58.048,-23.368 -59.682,-25.231 -62.287,-25.231M0,-26.676C-2.889,-26.676 -5.224,-24.718 -6.452,-22.086C-5.615,-22.032 -4.832,-22.032 -4.171,-22.032C1.566,-22.032 3.295,-23.112 3.268,-24.611C3.24,-25.69 2.134,-26.676 0,-26.676M0,-26.676C-2.889,-26.676 -5.224,-24.718 -6.452,-22.086C-5.615,-22.032 -4.832,-22.032 -4.171,-22.032C1.566,-22.032 3.295,-23.112 3.268,-24.611C3.24,-25.69 2.134,-26.676 0,-26.676M-62.287,-25.231C-64.096,-25.231 -65.824,-24.259 -67.025,-22.693L-67.593,-19.899C-68.214,-16.227 -66.594,-13.594 -63.191,-13.594C-59.723,-13.594 -57.886,-16.956 -57.98,-20.574C-58.048,-23.368 -59.682,-25.231 -62.287,-25.231M-150.278,3.631C-152.6,3.631 -154.355,5.845 -154.287,8.626C-154.247,10.475 -153.113,11.892 -151.142,11.892C-148.82,11.892 -147.065,9.678 -147.133,6.898C-147.173,5.035 -148.32,3.631 -150.278,3.631M-93.741,-25.65C-97.4,-25.65 -99.694,-21.924 -99.6,-18.144C-99.533,-15.349 -97.629,-13.284 -94.983,-13.284C-91.312,-13.284 -89.03,-17.01 -89.125,-20.83C-89.192,-23.571 -91.109,-25.65 -93.741,-25.65M-150.278,3.631C-152.6,3.631 -154.355,5.845 -154.287,8.626C-154.247,10.475 -153.113,11.892 -151.142,11.892C-148.82,11.892 -147.065,9.678 -147.133,6.898C-147.173,5.035 -148.32,3.631 -150.278,3.631M-93.741,-25.65C-97.4,-25.65 -99.694,-21.924 -99.6,-18.144C-99.533,-15.349 -97.629,-13.284 -94.983,-13.284C-91.312,-13.284 -89.03,-17.01 -89.125,-20.83C-89.192,-23.571 -91.109,-25.65 -93.741,-25.65M-62.287,-25.231C-64.096,-25.231 -65.824,-24.259 -67.025,-22.693L-67.593,-19.899C-68.214,-16.227 -66.594,-13.594 -63.191,-13.594C-59.723,-13.594 -57.886,-16.956 -57.98,-20.574C-58.048,-23.368 -59.682,-25.231 -62.287,-25.231M0,-26.676C-2.889,-26.676 -5.224,-24.718 -6.452,-22.086C-5.615,-22.032 -4.832,-22.032 -4.171,-22.032C1.566,-22.032 3.295,-23.112 3.268,-24.611C3.24,-25.69 2.134,-26.676 0,-26.676M0,-26.676C-2.889,-26.676 -5.224,-24.718 -6.452,-22.086C-5.615,-22.032 -4.832,-22.032 -4.171,-22.032C1.566,-22.032 3.295,-23.112 3.268,-24.611C3.24,-25.69 2.134,-26.676 0,-26.676M-62.287,-25.231C-64.096,-25.231 -65.824,-24.259 -67.025,-22.693L-67.593,-19.899C-68.214,-16.227 -66.594,-13.594 -63.191,-13.594C-59.723,-13.594 -57.886,-16.956 -57.98,-20.574C-58.048,-23.368 -59.682,-25.231 -62.287,-25.231M-150.278,3.631C-152.6,3.631 -154.355,5.845 -154.287,8.626C-154.247,10.475 -153.113,11.892 -151.142,11.892C-148.82,11.892 -147.065,9.678 -147.133,6.898C-147.173,5.035 -148.32,3.631 -150.278,3.631M-93.741,-25.65C-97.4,-25.65 -99.694,-21.924 -99.6,-18.144C-99.533,-15.349 -97.629,-13.284 -94.983,-13.284C-91.312,-13.284 -89.03,-17.01 -89.125,-20.83C-89.192,-23.571 -91.109,-25.65 -93.741,-25.65M-150.278,3.631C-152.6,3.631 -154.355,5.845 -154.287,8.626C-154.247,10.475 -153.113,11.892 -151.142,11.892C-148.82,11.892 -147.065,9.678 -147.133,6.898C-147.173,5.035 -148.32,3.631 -150.278,3.631M-93.741,-25.65C-97.4,-25.65 -99.694,-21.924 -99.6,-18.144C-99.533,-15.349 -97.629,-13.284 -94.983,-13.284C-91.312,-13.284 -89.03,-17.01 -89.125,-20.83C-89.192,-23.571 -91.109,-25.65 -93.741,-25.65M-62.287,-25.231C-64.096,-25.231 -65.824,-24.259 -67.025,-22.693L-67.593,-19.899C-68.214,-16.227 -66.594,-13.594 -63.191,-13.594C-59.723,-13.594 -57.886,-16.956 -57.98,-20.574C-58.048,-23.368 -59.682,-25.231 -62.287,-25.231M0,-26.676C-2.889,-26.676 -5.224,-24.718 -6.452,-22.086C-5.615,-22.032 -4.832,-22.032 -4.171,-22.032C1.566,-22.032 3.295,-23.112 3.268,-24.611C3.24,-25.69 2.134,-26.676 0,-26.676M0,-26.676C-2.889,-26.676 -5.224,-24.718 -6.452,-22.086C-5.615,-22.032 -4.832,-22.032 -4.171,-22.032C1.566,-22.032 3.295,-23.112 3.268,-24.611C3.24,-25.69 2.134,-26.676 0,-26.676M-62.287,-25.231C-64.096,-25.231 -65.824,-24.259 -67.025,-22.693L-67.593,-19.899C-68.214,-16.227 -66.594,-13.594 -63.191,-13.594C-59.723,-13.594 -57.886,-16.956 -57.98,-20.574C-58.048,-23.368 -59.682,-25.231 -62.287,-25.231M-150.278,3.631C-152.6,3.631 -154.355,5.845 -154.287,8.626C-154.247,10.475 -153.113,11.892 -151.142,11.892C-148.82,11.892 -147.065,9.678 -147.133,6.898C-147.173,5.035 -148.32,3.631 -150.278,3.631M-93.741,-25.65C-97.4,-25.65 -99.694,-21.924 -99.6,-18.144C-99.533,-15.349 -97.629,-13.284 -94.983,-13.284C-91.312,-13.284 -89.03,-17.01 -89.125,-20.83C-89.192,-23.571 -91.109,-25.65 -93.741,-25.65M-150.278,3.631C-152.6,3.631 -154.355,5.845 -154.287,8.626C-154.247,10.475 -153.113,11.892 -151.142,11.892C-148.82,11.892 -147.065,9.678 -147.133,6.898C-147.173,5.035 -148.32,3.631 -150.278,3.631M-94.983,-13.284C-91.312,-13.284 -89.03,-17.01 -89.125,-20.83C-89.192,-23.571 -91.109,-25.65 -93.741,-25.65C-97.4,-25.65 -99.694,-21.924 -99.6,-18.144C-99.533,-15.349 -97.629,-13.284 -94.983,-13.284M-62.287,-25.231C-64.096,-25.231 -65.824,-24.259 -67.025,-22.693L-67.593,-19.899C-68.214,-16.227 -66.594,-13.594 -63.191,-13.594C-59.723,-13.594 -57.886,-16.956 -57.98,-20.574C-58.048,-23.368 -59.682,-25.231 -62.287,-25.231M-18.318,3.361L-20.249,3.361L-21.005,7.249L-18.737,7.249C-16.848,7.249 -16.104,6.304 -16.132,4.981C-16.159,3.928 -16.941,3.361 -18.318,3.361M0,-26.676C-2.889,-26.676 -5.224,-24.718 -6.452,-22.086C-5.615,-22.032 -4.832,-22.032 -4.171,-22.032C1.566,-22.032 3.295,-23.112 3.268,-24.611C3.24,-25.69 2.134,-26.676 0,-26.676M-3.213,-16.443C-4.509,-16.443 -5.845,-16.443 -7.357,-16.551C-6.979,-14.108 -5.13,-12.758 -1.984,-12.758C1.013,-12.758 3.416,-14.323 4.807,-16.187C4.86,-16.24 8.762,-15.714 8.829,-12.663C8.87,-10.895 8.384,-10.017 7.317,-8.937C5.697,-7.277 2.579,-5.981 -1.984,-5.981C-11.083,-5.981 -15.281,-10.8 -15.443,-17.267C-15.659,-26.622 -8.626,-32.94 0.324,-32.94C7.371,-32.94 11.164,-29.727 11.286,-24.921C11.407,-19.589 8.113,-16.443 -3.213,-16.443M3.767,5.48C2.646,4.022 0.851,3.023 -0.891,3.023C-2.2,3.023 -2.861,3.604 -2.834,4.346C-2.821,5.143 -1.606,5.427 -0.013,6.02C2.188,6.817 4.522,7.965 4.591,10.637C4.671,13.931 2.39,16.496 -2.861,16.496C-5.858,16.496 -7.883,15.74 -9.018,14.634C-9.652,14.012 -10.003,13.269 -10.017,12.513C-10.057,10.948 -8.329,9.894 -8.193,10.044C-7.087,11.38 -4.94,12.541 -3.01,12.541C-1.687,12.541 -1.079,12.054 -1.106,11.178C-1.12,10.422 -2.214,10.178 -3.645,9.625C-5.629,8.909 -7.87,7.749 -7.937,4.873C-8.005,1.889 -5.953,-0.918 -0.931,-0.918C1.863,-0.918 3.808,-0.203 4.888,0.85C5.454,1.43 5.751,2.078 5.765,2.767C5.806,4.576 3.902,5.629 3.767,5.48M-14.741,11.637C-13.81,13.095 -13.297,13.431 -12.217,13.567C-12.027,13.621 -11.974,16.307 -15.268,16.307C-17.158,16.307 -18.103,15.564 -19.426,13.121L-20.641,10.948L-21.612,10.948L-22.166,13.864C-22.463,15.457 -23.192,16.266 -24.69,16.266L-25.379,16.266C-26.81,16.266 -27.634,15.389 -27.323,13.809L-25.108,2.024C-24.758,0.188 -23.705,-0.568 -21.99,-0.568L-17.806,-0.568C-13.242,-0.568 -11.016,1.201 -10.948,4.441C-10.88,7.357 -12.541,9.53 -15.699,10.124L-14.741,11.637ZM-28.997,3.306C-29.375,3.698 -29.834,3.874 -30.995,3.874L-37.461,3.874L-37.799,5.575L-33.222,5.575C-31.926,5.575 -31.225,6.196 -31.197,7.073C-31.184,7.546 -31.373,8.653 -31.899,9.179C-32.25,9.557 -32.683,9.76 -33.763,9.76L-38.568,9.76L-38.933,11.69L-32.561,11.69C-31.17,11.69 -30.414,12.298 -30.388,13.269C-30.374,13.809 -30.576,14.998 -31.13,15.564C-31.508,15.942 -31.967,16.132 -33.128,16.132L-41.714,16.132C-43.779,16.132 -44.751,15.093 -44.332,12.851L-42.28,2.024C-41.943,0.216 -40.877,-0.568 -39.176,-0.568L-30.441,-0.568C-29.011,-0.568 -28.241,0.067 -28.228,1.012C-28.214,1.565 -28.443,2.74 -28.997,3.306M-45.831,-14L-43.198,-27.769C-42.564,-31.333 -41.295,-32.521 -38.757,-32.521L-37.731,-32.521C-35.045,-32.521 -32.574,-31.441 -33.263,-27.769L-35.989,-13.649C-36.584,-10.598 -36.03,-9.409 -34.153,-8.843C-34.1,-8.788 -34.829,-6.035 -39.526,-6.035C-45.372,-6.035 -46.654,-9.558 -45.831,-14M-45.588,3.334C-45.966,3.725 -46.425,3.928 -47.613,3.928L-50.448,3.928L-52.324,13.864C-52.635,15.457 -53.351,16.266 -54.849,16.266L-55.564,16.266C-56.981,16.266 -57.805,15.389 -57.508,13.809L-55.632,3.928L-58.265,3.928C-59.668,3.928 -60.465,3.28 -60.491,2.335C-60.491,1.836 -60.303,0.621 -59.709,0.04C-59.331,-0.352 -58.885,-0.568 -57.697,-0.568L-47.046,-0.568C-45.615,-0.568 -44.832,0.081 -44.805,1.039C-44.805,1.539 -44.994,2.74 -45.588,3.334M-69.591,-10.8C-70.859,-7.696 -72.952,-6.453 -76.354,-6.453C-78.271,-6.453 -79.85,-7.277 -79.755,-7.655L-74.018,-38.313C-73.33,-41.876 -72.061,-43.078 -69.522,-43.078L-68.497,-43.078C-65.864,-43.078 -63.34,-41.985 -64.083,-38.313L-65.783,-29.362C-64.137,-31.535 -61.68,-32.94 -58.521,-32.94C-52.945,-32.94 -48.599,-28.904 -48.437,-22.18C-48.247,-13.959 -53.134,-6.035 -61.099,-6.035C-64.515,-6.035 -67.957,-7.655 -69.591,-10.8M-62.841,3.334C-63.219,3.725 -63.678,3.928 -64.865,3.928L-67.7,3.928L-69.591,13.864C-69.9,15.457 -70.603,16.266 -72.102,16.266L-72.817,16.266C-74.248,16.266 -75.071,15.389 -74.774,13.809L-72.884,3.928L-75.517,3.928C-76.935,3.928 -77.73,3.28 -77.758,2.335C-77.758,1.836 -77.555,0.621 -76.975,0.04C-76.597,-0.352 -76.138,-0.568 -74.95,-0.568L-64.299,-0.568C-62.881,-0.568 -62.085,0.081 -62.058,1.039C-62.058,1.539 -62.26,2.74 -62.841,3.334M-80.498,1.755L-82.779,13.904C-83.077,15.511 -83.806,16.266 -85.264,16.266L-86.033,16.266C-87.451,16.266 -88.288,15.389 -87.977,13.809L-85.682,1.66C-85.358,0.067 -84.656,-0.689 -83.185,-0.689L-82.415,-0.689C-81.024,-0.689 -80.174,0.188 -80.498,1.755M-89.273,3.239C-89.637,3.631 -90.083,3.793 -91.203,3.793L-97.21,3.793L-97.724,6.507L-93.633,6.507C-92.337,6.507 -91.608,7.1 -91.595,7.978C-91.581,8.437 -91.744,9.557 -92.297,10.124C-92.648,10.475 -93.066,10.665 -94.187,10.665L-98.317,10.665L-98.898,13.864C-99.209,15.457 -99.938,16.266 -101.436,16.266L-102.232,16.266C-103.65,16.266 -104.474,15.389 -104.177,13.809L-101.962,2.024C-101.611,0.188 -100.545,-0.568 -98.844,-0.568L-90.664,-0.568C-89.327,-0.568 -88.571,0.067 -88.544,0.985C-88.53,1.458 -88.733,2.673 -89.273,3.239M-105.243,3.334C-105.621,3.725 -106.08,3.928 -107.268,3.928L-110.116,3.928L-111.979,13.864C-112.317,15.457 -113.019,16.266 -114.517,16.266L-115.233,16.266C-116.65,16.266 -117.46,15.389 -117.177,13.809L-115.3,3.928L-117.919,3.928C-119.336,3.928 -120.133,3.28 -120.146,2.335C-120.16,1.836 -119.971,0.621 -119.377,0.04C-118.999,-0.352 -118.554,-0.568 -117.366,-0.568L-106.714,-0.568C-105.284,-0.568 -104.5,0.081 -104.474,1.039C-104.46,1.539 -104.676,2.74 -105.243,3.334M-122.927,-11.111C-122.955,-12.623 -122.63,-14.108 -121.875,-17.118C-121.308,-19.345 -120.983,-20.992 -121.011,-21.816C-121.051,-23.733 -122.158,-24.921 -123.765,-24.921C-125.115,-24.921 -126.181,-24.313 -127.288,-22.855C-127.302,-22.855 -129.435,-11.219 -129.435,-11.219C-130.136,-7.601 -131.446,-6.4 -133.984,-6.4L-135.023,-6.4C-137.71,-6.4 -140.099,-7.492 -139.37,-11.219L-137.629,-20.574C-137.169,-23.112 -138.209,-24.921 -140.113,-24.921C-141.557,-24.921 -142.583,-24.313 -143.636,-23.004L-145.891,-11.219C-146.525,-7.601 -147.848,-6.4 -150.426,-6.4L-151.412,-6.4C-154.098,-6.4 -156.515,-7.547 -155.826,-11.219L-151.911,-31.914C-151.871,-32.103 -150.629,-32.521 -149.036,-32.521C-146.512,-32.521 -144.041,-31.225 -143.596,-27.716C-141.449,-30.982 -138.547,-32.94 -134.727,-32.94C-131.149,-32.94 -128.26,-30.874 -127.342,-27.499C-125.25,-30.766 -122.401,-32.94 -118.311,-32.94C-113.667,-32.94 -110.737,-29.47 -110.629,-24.921C-110.589,-23.112 -111.048,-20.83 -111.912,-17.536C-112.519,-15.093 -112.979,-13.082 -112.965,-12.042C-112.924,-10.543 -112.25,-9.868 -110.886,-9.558C-110.737,-9.558 -111.628,-6.035 -116.691,-6.035C-120.997,-6.035 -122.847,-8.06 -122.927,-11.111M-122.617,1.727L-124.062,9.368C-124.993,14.175 -127.733,16.47 -132.175,16.47C-137.75,16.47 -140.167,13.594 -139.127,8.207L-137.899,1.66C-137.575,0.067 -136.859,-0.689 -135.401,-0.689L-134.618,-0.689C-133.214,-0.689 -132.391,0.135 -132.688,1.755L-133.984,8.598C-134.402,10.759 -133.714,11.947 -131.743,11.947C-130.406,11.947 -129.516,11.123 -129.124,9.098L-127.72,1.701C-127.437,0.107 -126.708,-0.689 -125.236,-0.689L-124.561,-0.689C-123.144,-0.689 -122.293,0.162 -122.617,1.727M-151.317,16.47C-156.623,16.47 -159.323,12.959 -159.417,8.99C-159.539,3.874 -156.15,-0.918 -150.103,-0.918C-144.784,-0.918 -142.111,2.564 -142.002,6.56C-141.881,11.663 -145.283,16.47 -151.317,16.47M-93.701,-32.94C-85.277,-32.94 -81.011,-27.661 -80.849,-21.209C-80.673,-13.5 -85.615,-5.981 -95.024,-5.981C-103.461,-5.981 -107.727,-11.326 -107.875,-17.725C-108.064,-25.488 -103.11,-32.94 -93.701,-32.94M-35.882,-44.576C-32.642,-44.576 -30.685,-42.862 -30.63,-40.499C-30.549,-37.286 -32.831,-35.208 -35.989,-35.208C-39.243,-35.208 -41.188,-36.922 -41.241,-39.298C-41.322,-42.511 -39.041,-44.576 -35.882,-44.576M-25.824,-38.313C-25.177,-41.876 -23.907,-43.078 -21.383,-43.078L-20.344,-43.078C-17.657,-43.078 -15.187,-41.985 -15.889,-38.313L-20.573,-13.649C-21.167,-10.598 -20.627,-9.409 -18.751,-8.843C-18.696,-8.788 -19.412,-6.035 -24.123,-6.035C-29.969,-6.035 -31.237,-9.558 -30.4,-14L-25.824,-38.313ZM31.347,-57.428C28.593,-60.736 24.557,-62.639 20.25,-62.639L-152.316,-62.639C-159.93,-62.639 -166.774,-56.591 -168.273,-48.572L-180.814,17.509C-180.814,17.536 -180.814,17.55 -180.828,17.576C-181.705,22.395 -180.517,27.202 -177.574,30.752C-174.82,34.059 -170.771,35.949 -166.478,35.949L6.089,35.949C13.703,35.949 20.561,29.915 22.059,21.883L34.587,-44.198C34.587,-44.212 34.587,-44.239 34.601,-44.252C35.491,-49.085 34.304,-53.891 31.347,-57.428M-93.741,-25.65C-97.4,-25.65 -99.694,-21.924 -99.6,-18.144C-99.533,-15.349 -97.629,-13.284 -94.983,-13.284C-91.312,-13.284 -89.03,-17.01 -89.125,-20.83C-89.192,-23.571 -91.109,-25.65 -93.741,-25.65M-150.278,3.631C-152.6,3.631 -154.355,5.845 -154.287,8.626C-154.247,10.475 -153.113,11.892 -151.142,11.892C-148.82,11.892 -147.065,9.678 -147.133,6.898C-147.173,5.035 -148.32,3.631 -150.278,3.631M-62.287,-25.231C-64.096,-25.231 -65.824,-24.259 -67.025,-22.693L-67.593,-19.899C-68.214,-16.227 -66.594,-13.594 -63.191,-13.594C-59.723,-13.594 -57.886,-16.956 -57.98,-20.574C-58.048,-23.368 -59.682,-25.231 -62.287,-25.231M-18.318,3.361L-20.249,3.361L-21.005,7.249L-18.737,7.249C-16.848,7.249 -16.104,6.304 -16.132,4.981C-16.159,3.928 -16.941,3.361 -18.318,3.361M0,-26.676C-2.889,-26.676 -5.224,-24.718 -6.452,-22.086C-5.615,-22.032 -4.832,-22.032 -4.171,-22.032C1.566,-22.032 3.295,-23.112 3.268,-24.611C3.24,-25.69 2.134,-26.676 0,-26.676M0,-26.676C-2.889,-26.676 -5.224,-24.718 -6.452,-22.086C-5.615,-22.032 -4.832,-22.032 -4.171,-22.032C1.566,-22.032 3.295,-23.112 3.268,-24.611C3.24,-25.69 2.134,-26.676 0,-26.676M-18.318,3.361L-20.249,3.361L-21.005,7.249L-18.737,7.249C-16.848,7.249 -16.104,6.304 -16.132,4.981C-16.159,3.928 -16.941,3.361 -18.318,3.361M-62.287,-25.231C-64.096,-25.231 -65.824,-24.259 -67.025,-22.693L-67.593,-19.899C-68.214,-16.227 -66.594,-13.594 -63.191,-13.594C-59.723,-13.594 -57.886,-16.956 -57.98,-20.574C-58.048,-23.368 -59.682,-25.231 -62.287,-25.231M-93.741,-25.65C-97.4,-25.65 -99.694,-21.924 -99.6,-18.144C-99.533,-15.349 -97.629,-13.284 -94.983,-13.284C-91.312,-13.284 -89.03,-17.01 -89.125,-20.83C-89.192,-23.571 -91.109,-25.65 -93.741,-25.65M-150.278,3.631C-152.6,3.631 -154.355,5.845 -154.287,8.626C-154.247,10.475 -153.113,11.892 -151.142,11.892C-148.82,11.892 -147.065,9.678 -147.133,6.898C-147.173,5.035 -148.32,3.631 -150.278,3.631M-93.741,-25.65C-97.4,-25.65 -99.694,-21.924 -99.6,-18.144C-99.533,-15.349 -97.629,-13.284 -94.983,-13.284C-91.312,-13.284 -89.03,-17.01 -89.125,-20.83C-89.192,-23.571 -91.109,-25.65 -93.741,-25.65M-150.278,3.631C-152.6,3.631 -154.355,5.845 -154.287,8.626C-154.247,10.475 -153.113,11.892 -151.142,11.892C-148.82,11.892 -147.065,9.678 -147.133,6.898C-147.173,5.035 -148.32,3.631 -150.278,3.631M-62.287,-25.231C-64.096,-25.231 -65.824,-24.259 -67.025,-22.693L-67.593,-19.899C-68.214,-16.227 -66.594,-13.594 -63.191,-13.594C-59.723,-13.594 -57.886,-16.956 -57.98,-20.574C-58.048,-23.368 -59.682,-25.231 -62.287,-25.231M0,-26.676C-2.889,-26.676 -5.224,-24.718 -6.452,-22.086C-5.615,-22.032 -4.832,-22.032 -4.171,-22.032C1.566,-22.032 3.295,-23.112 3.268,-24.611C3.24,-25.69 2.134,-26.676 0,-26.676M0,-26.676C-2.889,-26.676 -5.224,-24.718 -6.452,-22.086C-5.615,-22.032 -4.832,-22.032 -4.171,-22.032C1.566,-22.032 3.295,-23.112 3.268,-24.611C3.24,-25.69 2.134,-26.676 0,-26.676M-62.287,-25.231C-64.096,-25.231 -65.824,-24.259 -67.025,-22.693L-67.593,-19.899C-68.214,-16.227 -66.594,-13.594 -63.191,-13.594C-59.723,-13.594 -57.886,-16.956 -57.98,-20.574C-58.048,-23.368 -59.682,-25.231 -62.287,-25.231M-93.741,-25.65C-97.4,-25.65 -99.694,-21.924 -99.6,-18.144C-99.533,-15.349 -97.629,-13.284 -94.983,-13.284C-91.312,-13.284 -89.03,-17.01 -89.125,-20.83C-89.192,-23.571 -91.109,-25.65 -93.741,-25.65M-150.278,3.631C-152.6,3.631 -154.355,5.845 -154.287,8.626C-154.247,10.475 -153.113,11.892 -151.142,11.892C-148.82,11.892 -147.065,9.678 -147.133,6.898C-147.173,5.035 -148.32,3.631 -150.278,3.631M-93.741,-25.65C-97.4,-25.65 -99.694,-21.924 -99.6,-18.144C-99.533,-15.349 -97.629,-13.284 -94.983,-13.284C-91.312,-13.284 -89.03,-17.01 -89.125,-20.83C-89.192,-23.571 -91.109,-25.65 -93.741,-25.65M-150.278,3.631C-152.6,3.631 -154.355,5.845 -154.287,8.626C-154.247,10.475 -153.113,11.892 -151.142,11.892C-148.82,11.892 -147.065,9.678 -147.133,6.898C-147.173,5.035 -148.32,3.631 -150.278,3.631M-62.287,-25.231C-64.096,-25.231 -65.824,-24.259 -67.025,-22.693L-67.593,-19.899C-68.214,-16.227 -66.594,-13.594 -63.191,-13.594C-59.723,-13.594 -57.886,-16.956 -57.98,-20.574C-58.048,-23.368 -59.682,-25.231 -62.287,-25.231M0,-26.676C-2.889,-26.676 -5.224,-24.718 -6.452,-22.086C-5.615,-22.032 -4.832,-22.032 -4.171,-22.032C1.566,-22.032 3.295,-23.112 3.268,-24.611C3.24,-25.69 2.134,-26.676 0,-26.676M0,-26.676C-2.889,-26.676 -5.224,-24.718 -6.452,-22.086C-5.615,-22.032 -4.832,-22.032 -4.171,-22.032C1.566,-22.032 3.295,-23.112 3.268,-24.611C3.24,-25.69 2.134,-26.676 0,-26.676M-62.287,-25.231C-64.096,-25.231 -65.824,-24.259 -67.025,-22.693L-67.593,-19.899C-68.214,-16.227 -66.594,-13.594 -63.191,-13.594C-59.723,-13.594 -57.886,-16.956 -57.98,-20.574C-58.048,-23.368 -59.682,-25.231 -62.287,-25.231M-93.741,-25.65C-97.4,-25.65 -99.694,-21.924 -99.6,-18.144C-99.533,-15.349 -97.629,-13.284 -94.983,-13.284C-91.312,-13.284 -89.03,-17.01 -89.125,-20.83C-89.192,-23.571 -91.109,-25.65 -93.741,-25.65M-150.278,3.631C-152.6,3.631 -154.355,5.845 -154.287,8.626C-154.247,10.475 -153.113,11.892 -151.142,11.892C-148.82,11.892 -147.065,9.678 -147.133,6.898C-147.173,5.035 -148.32,3.631 -150.278,3.631M-93.741,-25.65C-97.4,-25.65 -99.694,-21.924 -99.6,-18.144C-99.533,-15.349 -97.629,-13.284 -94.983,-13.284C-91.312,-13.284 -89.03,-17.01 -89.125,-20.83C-89.192,-23.571 -91.109,-25.65 -93.741,-25.65M-150.278,3.631C-152.6,3.631 -154.355,5.845 -154.287,8.626C-154.247,10.475 -153.113,11.892 -151.142,11.892C-148.82,11.892 -147.065,9.678 -147.133,6.898C-147.173,5.035 -148.32,3.631 -150.278,3.631M-62.287,-25.231C-64.096,-25.231 -65.824,-24.259 -67.025,-22.693L-67.593,-19.899C-68.214,-16.227 -66.594,-13.594 -63.191,-13.594C-59.723,-13.594 -57.886,-16.956 -57.98,-20.574C-58.048,-23.368 -59.682,-25.231 -62.287,-25.231M0,-26.676C-2.889,-26.676 -5.224,-24.718 -6.452,-22.086C-5.615,-22.032 -4.832,-22.032 -4.171,-22.032C1.566,-22.032 3.295,-23.112 3.268,-24.611C3.24,-25.69 2.134,-26.676 0,-26.676M0,-26.676C-2.889,-26.676 -5.224,-24.718 -6.452,-22.086C-5.615,-22.032 -4.832,-22.032 -4.171,-22.032C1.566,-22.032 3.295,-23.112 3.268,-24.611C3.24,-25.69 2.134,-26.676 0,-26.676M-62.287,-25.231C-64.096,-25.231 -65.824,-24.259 -67.025,-22.693L-67.593,-19.899C-68.214,-16.227 -66.594,-13.594 -63.191,-13.594C-59.723,-13.594 -57.886,-16.956 -57.98,-20.574C-58.048,-23.368 -59.682,-25.231 -62.287,-25.231M-93.741,-25.65C-97.4,-25.65 -99.694,-21.924 -99.6,-18.144C-99.533,-15.349 -97.629,-13.284 -94.983,-13.284C-91.312,-13.284 -89.03,-17.01 -89.125,-20.83C-89.192,-23.571 -91.109,-25.65 -93.741,-25.65M-150.278,3.631C-152.6,3.631 -154.355,5.845 -154.287,8.626C-154.247,10.475 -153.113,11.892 -151.142,11.892C-148.82,11.892 -147.065,9.678 -147.133,6.898C-147.173,5.035 -148.32,3.631 -150.278,3.631M-93.741,-25.65C-97.4,-25.65 -99.694,-21.924 -99.6,-18.144C-99.533,-15.349 -97.629,-13.284 -94.983,-13.284C-91.312,-13.284 -89.03,-17.01 -89.125,-20.83C-89.192,-23.571 -91.109,-25.65 -93.741,-25.65M-150.278,3.631C-152.6,3.631 -154.355,5.845 -154.287,8.626C-154.247,10.475 -153.113,11.892 -151.142,11.892C-148.82,11.892 -147.065,9.678 -147.133,6.898C-147.173,5.035 -148.32,3.631 -150.278,3.631M-62.287,-25.231C-64.096,-25.231 -65.824,-24.259 -67.025,-22.693L-67.593,-19.899C-68.214,-16.227 -66.594,-13.594 -63.191,-13.594C-59.723,-13.594 -57.886,-16.956 -57.98,-20.574C-58.048,-23.368 -59.682,-25.231 -62.287,-25.231M0,-26.676C-2.889,-26.676 -5.224,-24.718 -6.452,-22.086C-5.615,-22.032 -4.832,-22.032 -4.171,-22.032C1.566,-22.032 3.295,-23.112 3.268,-24.611C3.24,-25.69 2.134,-26.676 0,-26.676M0,-26.676C-2.889,-26.676 -5.224,-24.718 -6.452,-22.086C-5.615,-22.032 -4.832,-22.032 -4.171,-22.032C1.566,-22.032 3.295,-23.112 3.268,-24.611C3.24,-25.69 2.134,-26.676 0,-26.676M-62.287,-25.231C-64.096,-25.231 -65.824,-24.259 -67.025,-22.693L-67.593,-19.899C-68.214,-16.227 -66.594,-13.594 -63.191,-13.594C-59.723,-13.594 -57.886,-16.956 -57.98,-20.574C-58.048,-23.368 -59.682,-25.231 -62.287,-25.231M-93.741,-25.65C-97.4,-25.65 -99.694,-21.924 -99.6,-18.144C-99.533,-15.349 -97.629,-13.284 -94.983,-13.284C-91.312,-13.284 -89.03,-17.01 -89.125,-20.83C-89.192,-23.571 -91.109,-25.65 -93.741,-25.65M-150.278,3.631C-152.6,3.631 -154.355,5.845 -154.287,8.626C-154.247,10.475 -153.113,11.892 -151.142,11.892C-148.82,11.892 -147.065,9.678 -147.133,6.898C-147.173,5.035 -148.32,3.631 -150.278,3.631M-93.741,-25.65C-97.4,-25.65 -99.694,-21.924 -99.6,-18.144C-99.533,-15.349 -97.629,-13.284 -94.983,-13.284C-91.312,-13.284 -89.03,-17.01 -89.125,-20.83C-89.192,-23.571 -91.109,-25.65 -93.741,-25.65M-62.287,-25.231C-64.096,-25.231 -65.824,-24.259 -67.025,-22.693L-67.593,-19.899C-68.214,-16.227 -66.594,-13.594 -63.191,-13.594C-59.723,-13.594 -57.886,-16.956 -57.98,-20.574C-58.048,-23.368 -59.682,-25.231 -62.287,-25.231M0,-26.676C-2.889,-26.676 -5.224,-24.718 -6.452,-22.086C-5.615,-22.032 -4.832,-22.032 -4.171,-22.032C1.566,-22.032 3.295,-23.112 3.268,-24.611C3.24,-25.69 2.134,-26.676 0,-26.676M0,-26.676C-2.889,-26.676 -5.224,-24.718 -6.452,-22.086C-5.615,-22.032 -4.832,-22.032 -4.171,-22.032C1.566,-22.032 3.295,-23.112 3.268,-24.611C3.24,-25.69 2.134,-26.676 0,-26.676M-62.287,-25.231C-64.096,-25.231 -65.824,-24.259 -67.025,-22.693L-67.593,-19.899C-68.214,-16.227 -66.594,-13.594 -63.191,-13.594C-59.723,-13.594 -57.886,-16.956 -57.98,-20.574C-58.048,-23.368 -59.682,-25.231 -62.287,-25.231M-93.741,-25.65C-97.4,-25.65 -99.694,-21.924 -99.6,-18.144C-99.533,-15.349 -97.629,-13.284 -94.983,-13.284C-91.312,-13.284 -89.03,-17.01 -89.125,-20.83C-89.192,-23.571 -91.109,-25.65 -93.741,-25.65M0,-26.676C-2.889,-26.676 -5.224,-24.718 -6.452,-22.086C-5.615,-22.032 -4.832,-22.032 -4.171,-22.032C1.566,-22.032 3.295,-23.112 3.268,-24.611C3.24,-25.69 2.134,-26.676 0,-26.676M0,-26.676C-2.889,-26.676 -5.224,-24.718 -6.452,-22.086C-5.615,-22.032 -4.832,-22.032 -4.171,-22.032C1.566,-22.032 3.295,-23.112 3.268,-24.611C3.24,-25.69 2.134,-26.676 0,-26.676M0,-26.676C-2.889,-26.676 -5.224,-24.718 -6.452,-22.086C-5.615,-22.032 -4.832,-22.032 -4.171,-22.032C1.566,-22.032 3.295,-23.112 3.268,-24.611C3.24,-25.69 2.134,-26.676 0,-26.676M0,-26.676C-2.889,-26.676 -5.224,-24.718 -6.452,-22.086C-5.615,-22.032 -4.832,-22.032 -4.171,-22.032C1.566,-22.032 3.295,-23.112 3.268,-24.611C3.24,-25.69 2.134,-26.676 0,-26.676M27.904,32.17C27.783,32.277 27.621,32.331 27.392,32.331L27.067,32.331L27.067,31.116L27.378,31.116C27.621,31.116 27.796,31.157 27.904,31.252C28.025,31.332 28.08,31.494 28.08,31.711C28.08,31.913 28.025,32.061 27.904,32.17M28.242,32.763C28.714,32.574 28.943,32.21 28.943,31.697C28.943,31.278 28.822,30.955 28.579,30.752C28.336,30.55 27.944,30.441 27.404,30.441L26.203,30.441L26.203,34.586L27.067,34.586L27.067,32.993L27.485,32.993L28.363,34.586L29.335,34.586L28.242,32.763ZM27.904,32.17C27.783,32.277 27.621,32.331 27.392,32.331L27.067,32.331L27.067,31.116L27.378,31.116C27.621,31.116 27.796,31.157 27.904,31.252C28.025,31.332 28.08,31.494 28.08,31.711C28.08,31.913 28.025,32.061 27.904,32.17M28.242,32.763C28.714,32.574 28.943,32.21 28.943,31.697C28.943,31.278 28.822,30.955 28.579,30.752C28.336,30.55 27.944,30.441 27.404,30.441L26.203,30.441L26.203,34.586L27.067,34.586L27.067,32.993L27.485,32.993L28.363,34.586L29.335,34.586L28.242,32.763ZM27.904,32.17C27.783,32.277 27.621,32.331 27.392,32.331L27.067,32.331L27.067,31.116L27.378,31.116C27.621,31.116 27.796,31.157 27.904,31.252C28.025,31.332 28.08,31.494 28.08,31.711C28.08,31.913 28.025,32.061 27.904,32.17M28.242,32.763C28.714,32.574 28.943,32.21 28.943,31.697C28.943,31.278 28.822,30.955 28.579,30.752C28.336,30.55 27.944,30.441 27.404,30.441L26.203,30.441L26.203,34.586L27.067,34.586L27.067,32.993L27.485,32.993L28.363,34.586L29.335,34.586L28.242,32.763ZM27.904,32.17C27.783,32.277 27.621,32.331 27.392,32.331L27.067,32.331L27.067,31.116L27.378,31.116C27.621,31.116 27.796,31.157 27.904,31.252C28.025,31.332 28.08,31.494 28.08,31.711C28.08,31.913 28.025,32.061 27.904,32.17M28.242,32.763C28.714,32.574 28.943,32.21 28.943,31.697C28.943,31.278 28.822,30.955 28.579,30.752C28.336,30.55 27.944,30.441 27.404,30.441L26.203,30.441L26.203,34.586L27.067,34.586L27.067,32.993L27.485,32.993L28.363,34.586L29.335,34.586L28.242,32.763ZM27.904,32.17C27.783,32.277 27.621,32.331 27.392,32.331L27.067,32.331L27.067,31.116L27.378,31.116C27.621,31.116 27.796,31.157 27.904,31.252C28.025,31.332 28.08,31.494 28.08,31.711C28.08,31.913 28.025,32.061 27.904,32.17M28.242,32.763C28.714,32.574 28.943,32.21 28.943,31.697C28.943,31.278 28.822,30.955 28.579,30.752C28.336,30.55 27.944,30.441 27.404,30.441L26.203,30.441L26.203,34.586L27.067,34.586L27.067,32.993L27.485,32.993L28.363,34.586L29.335,34.586L28.242,32.763ZM27.904,32.17C27.783,32.277 27.621,32.331 27.392,32.331L27.067,32.331L27.067,31.116L27.378,31.116C27.621,31.116 27.796,31.157 27.904,31.252C28.025,31.332 28.08,31.494 28.08,31.711C28.08,31.913 28.025,32.061 27.904,32.17M28.242,32.763C28.714,32.574 28.943,32.21 28.943,31.697C28.943,31.278 28.822,30.955 28.579,30.752C28.336,30.55 27.944,30.441 27.404,30.441L26.203,30.441L26.203,34.586L27.067,34.586L27.067,32.993L27.485,32.993L28.363,34.586L29.335,34.586L28.242,32.763ZM27.904,32.17C27.783,32.277 27.621,32.331 27.392,32.331L27.067,32.331L27.067,31.116L27.378,31.116C27.621,31.116 27.796,31.157 27.904,31.252C28.025,31.332 28.08,31.494 28.08,31.711C28.08,31.913 28.025,32.061 27.904,32.17M28.242,32.763C28.714,32.574 28.943,32.21 28.943,31.697C28.943,31.278 28.822,30.955 28.579,30.752C28.336,30.55 27.944,30.441 27.404,30.441L26.203,30.441L26.203,34.586L27.067,34.586L27.067,32.993L27.485,32.993L28.363,34.586L29.335,34.586L28.242,32.763ZM27.904,32.17C27.783,32.277 27.621,32.331 27.392,32.331L27.067,32.331L27.067,31.116L27.378,31.116C27.621,31.116 27.796,31.157 27.904,31.252C28.025,31.332 28.08,31.494 28.08,31.711C28.08,31.913 28.025,32.061 27.904,32.17M28.242,32.763C28.714,32.574 28.943,32.21 28.943,31.697C28.943,31.278 28.822,30.955 28.579,30.752C28.336,30.55 27.944,30.441 27.404,30.441L26.203,30.441L26.203,34.586L27.067,34.586L27.067,32.993L27.485,32.993L28.363,34.586L29.335,34.586L28.242,32.763ZM27.904,32.17C27.783,32.277 27.621,32.331 27.392,32.331L27.067,32.331L27.067,31.116L27.378,31.116C27.621,31.116 27.796,31.157 27.904,31.252C28.025,31.332 28.08,31.494 28.08,31.711C28.08,31.913 28.025,32.061 27.904,32.17M28.242,32.763C28.714,32.574 28.943,32.21 28.943,31.697C28.943,31.278 28.822,30.955 28.579,30.752C28.336,30.55 27.944,30.441 27.404,30.441L26.203,30.441L26.203,34.586L27.067,34.586L27.067,32.993L27.485,32.993L28.363,34.586L29.335,34.586L28.242,32.763ZM27.904,32.17C27.783,32.277 27.621,32.331 27.392,32.331L27.067,32.331L27.067,31.116L27.378,31.116C27.621,31.116 27.796,31.157 27.904,31.252C28.025,31.332 28.08,31.494 28.08,31.711C28.08,31.913 28.025,32.061 27.904,32.17M28.242,32.763C28.714,32.574 28.943,32.21 28.943,31.697C28.943,31.278 28.822,30.955 28.579,30.752C28.336,30.55 27.944,30.441 27.404,30.441L26.203,30.441L26.203,34.586L27.067,34.586L27.067,32.993L27.485,32.993L28.363,34.586L29.335,34.586L28.242,32.763ZM27.904,32.17C27.783,32.277 27.621,32.331 27.392,32.331L27.067,32.331L27.067,31.116L27.378,31.116C27.621,31.116 27.796,31.157 27.904,31.252C28.025,31.332 28.08,31.494 28.08,31.711C28.08,31.913 28.025,32.061 27.904,32.17M28.242,32.763C28.714,32.574 28.943,32.21 28.943,31.697C28.943,31.278 28.822,30.955 28.579,30.752C28.336,30.55 27.944,30.441 27.404,30.441L26.203,30.441L26.203,34.586L27.067,34.586L27.067,32.993L27.485,32.993L28.363,34.586L29.335,34.586L28.242,32.763ZM27.904,32.17C27.783,32.277 27.621,32.331 27.392,32.331L27.067,32.331L27.067,31.116L27.378,31.116C27.621,31.116 27.796,31.157 27.904,31.252C28.025,31.332 28.08,31.494 28.08,31.711C28.08,31.913 28.025,32.061 27.904,32.17M28.242,32.763C28.714,32.574 28.943,32.21 28.943,31.697C28.943,31.278 28.822,30.955 28.579,30.752C28.336,30.55 27.944,30.441 27.404,30.441L26.203,30.441L26.203,34.586L27.067,34.586L27.067,32.993L27.485,32.993L28.363,34.586L29.335,34.586L28.242,32.763ZM27.904,32.17C27.783,32.277 27.621,32.331 27.392,32.331L27.067,32.331L27.067,31.116L27.378,31.116C27.621,31.116 27.796,31.157 27.904,31.252C28.025,31.332 28.08,31.494 28.08,31.711C28.08,31.913 28.025,32.061 27.904,32.17M28.242,32.763C28.714,32.574 28.943,32.21 28.943,31.697C28.943,31.278 28.822,30.955 28.579,30.752C28.336,30.55 27.944,30.441 27.404,30.441L26.203,30.441L26.203,34.586L27.067,34.586L27.067,32.993L27.485,32.993L28.363,34.586L29.335,34.586L28.242,32.763ZM27.904,32.17C27.783,32.277 27.621,32.331 27.392,32.331L27.067,32.331L27.067,31.116L27.378,31.116C27.621,31.116 27.796,31.157 27.904,31.252C28.025,31.332 28.08,31.494 28.08,31.711C28.08,31.913 28.025,32.061 27.904,32.17M28.242,32.763C28.714,32.574 28.943,32.21 28.943,31.697C28.943,31.278 28.822,30.955 28.579,30.752C28.336,30.55 27.944,30.441 27.404,30.441L26.203,30.441L26.203,34.586L27.067,34.586L27.067,32.993L27.485,32.993L28.363,34.586L29.335,34.586L28.242,32.763ZM27.904,32.17C27.783,32.277 27.621,32.331 27.392,32.331L27.067,32.331L27.067,31.116L27.378,31.116C27.621,31.116 27.796,31.157 27.904,31.252C28.025,31.332 28.08,31.494 28.08,31.711C28.08,31.913 28.025,32.061 27.904,32.17M28.242,32.763C28.714,32.574 28.943,32.21 28.943,31.697C28.943,31.278 28.822,30.955 28.579,30.752C28.336,30.55 27.944,30.441 27.404,30.441L26.203,30.441L26.203,34.586L27.067,34.586L27.067,32.993L27.485,32.993L28.363,34.586L29.335,34.586L28.242,32.763ZM27.904,32.17C27.783,32.277 27.621,32.331 27.392,32.331L27.067,32.331L27.067,31.116L27.378,31.116C27.621,31.116 27.796,31.157 27.904,31.252C28.025,31.332 28.08,31.494 28.08,31.711C28.08,31.913 28.025,32.061 27.904,32.17M28.242,32.763C28.714,32.574 28.943,32.21 28.943,31.697C28.943,31.278 28.822,30.955 28.579,30.752C28.336,30.55 27.944,30.441 27.404,30.441L26.203,30.441L26.203,34.586L27.067,34.586L27.067,32.993L27.485,32.993L28.363,34.586L29.335,34.586L28.242,32.763ZM27.904,32.17C27.783,32.277 27.621,32.331 27.392,32.331L27.067,32.331L27.067,31.116L27.378,31.116C27.621,31.116 27.796,31.157 27.904,31.252C28.025,31.332 28.08,31.494 28.08,31.711C28.08,31.913 28.025,32.061 27.904,32.17M28.943,31.697C28.943,31.278 28.822,30.955 28.579,30.752C28.336,30.55 27.944,30.441 27.404,30.441L26.203,30.441L26.203,34.586L27.067,34.586L27.067,32.993L27.485,32.993L28.363,34.586L29.335,34.586L28.242,32.763C28.714,32.574 28.943,32.21 28.943,31.697M30.051,33.951C29.794,34.396 29.443,34.748 28.998,35.005C28.553,35.261 28.066,35.395 27.554,35.395C27.04,35.395 26.555,35.274 26.108,35.017C25.663,34.762 25.312,34.41 25.056,33.965C24.786,33.519 24.664,33.033 24.664,32.507C24.664,31.98 24.8,31.508 25.056,31.049C25.326,30.603 25.677,30.253 26.108,30.01C26.555,29.753 27.04,29.618 27.554,29.618C28.066,29.618 28.539,29.753 28.984,30.01C29.443,30.265 29.794,30.617 30.051,31.062C30.308,31.508 30.442,31.994 30.442,32.507C30.442,33.033 30.308,33.506 30.051,33.951M30.537,30.779C30.227,30.239 29.808,29.82 29.268,29.51C28.741,29.213 28.161,29.051 27.554,29.051C26.933,29.051 26.352,29.213 25.825,29.523C25.285,29.834 24.867,30.253 24.557,30.793C24.246,31.319 24.098,31.899 24.098,32.507C24.098,33.114 24.246,33.681 24.543,34.208C24.84,34.748 25.259,35.166 25.798,35.476C26.338,35.801 26.919,35.963 27.554,35.963C28.187,35.963 28.769,35.801 29.309,35.476C29.849,35.166 30.267,34.734 30.563,34.208C30.86,33.681 31.009,33.114 31.009,32.507C31.009,31.886 30.848,31.319 30.537,30.779M27.904,32.17C27.783,32.277 27.621,32.331 27.392,32.331L27.067,32.331L27.067,31.116L27.378,31.116C27.621,31.116 27.796,31.157 27.904,31.252C28.025,31.332 28.08,31.494 28.08,31.711C28.08,31.913 28.025,32.061 27.904,32.17M28.242,32.763C28.714,32.574 28.943,32.21 28.943,31.697C28.943,31.278 28.822,30.955 28.579,30.752C28.336,30.55 27.944,30.441 27.404,30.441L26.203,30.441L26.203,34.586L27.067,34.586L27.067,32.993L27.485,32.993L28.363,34.586L29.335,34.586L28.242,32.763ZM27.904,32.17C27.783,32.277 27.621,32.331 27.392,32.331L27.067,32.331L27.067,31.116L27.378,31.116C27.621,31.116 27.796,31.157 27.904,31.252C28.025,31.332 28.08,31.494 28.08,31.711C28.08,31.913 28.025,32.061 27.904,32.17M28.242,32.763C28.714,32.574 28.943,32.21 28.943,31.697C28.943,31.278 28.822,30.955 28.579,30.752C28.336,30.55 27.944,30.441 27.404,30.441L26.203,30.441L26.203,34.586L27.067,34.586L27.067,32.993L27.485,32.993L28.363,34.586L29.335,34.586L28.242,32.763ZM27.904,32.17C27.783,32.277 27.621,32.331 27.392,32.331L27.067,32.331L27.067,31.116L27.378,31.116C27.621,31.116 27.796,31.157 27.904,31.252C28.025,31.332 28.08,31.494 28.08,31.711C28.08,31.913 28.025,32.061 27.904,32.17M28.242,32.763C28.714,32.574 28.943,32.21 28.943,31.697C28.943,31.278 28.822,30.955 28.579,30.752C28.336,30.55 27.944,30.441 27.404,30.441L26.203,30.441L26.203,34.586L27.067,34.586L27.067,32.993L27.485,32.993L28.363,34.586L29.335,34.586L28.242,32.763ZM27.904,32.17C27.783,32.277 27.621,32.331 27.392,32.331L27.067,32.331L27.067,31.116L27.378,31.116C27.621,31.116 27.796,31.157 27.904,31.252C28.025,31.332 28.08,31.494 28.08,31.711C28.08,31.913 28.025,32.061 27.904,32.17M28.242,32.763C28.714,32.574 28.943,32.21 28.943,31.697C28.943,31.278 28.822,30.955 28.579,30.752C28.336,30.55 27.944,30.441 27.404,30.441L26.203,30.441L26.203,34.586L27.067,34.586L27.067,32.993L27.485,32.993L28.363,34.586L29.335,34.586L28.242,32.763ZM27.904,32.17C27.783,32.277 27.621,32.331 27.392,32.331L27.067,32.331L27.067,31.116L27.378,31.116C27.621,31.116 27.796,31.157 27.904,31.252C28.025,31.332 28.08,31.494 28.08,31.711C28.08,31.913 28.025,32.061 27.904,32.17M28.242,32.763C28.714,32.574 28.943,32.21 28.943,31.697C28.943,31.278 28.822,30.955 28.579,30.752C28.336,30.55 27.944,30.441 27.404,30.441L26.203,30.441L26.203,34.586L27.067,34.586L27.067,32.993L27.485,32.993L28.363,34.586L29.335,34.586L28.242,32.763ZM27.904,32.17C27.783,32.277 27.621,32.331 27.392,32.331L27.067,32.331L27.067,31.116L27.378,31.116C27.621,31.116 27.796,31.157 27.904,31.252C28.025,31.332 28.08,31.494 28.08,31.711C28.08,31.913 28.025,32.061 27.904,32.17M28.242,32.763C28.714,32.574 28.943,32.21 28.943,31.697C28.943,31.278 28.822,30.955 28.579,30.752C28.336,30.55 27.944,30.441 27.404,30.441L26.203,30.441L26.203,34.586L27.067,34.586L27.067,32.993L27.485,32.993L28.363,34.586L29.335,34.586L28.242,32.763ZM27.904,32.17C27.783,32.277 27.621,32.331 27.392,32.331L27.067,32.331L27.067,31.116L27.378,31.116C27.621,31.116 27.796,31.157 27.904,31.252C28.025,31.332 28.08,31.494 28.08,31.711C28.08,31.913 28.025,32.061 27.904,32.17M28.242,32.763C28.714,32.574 28.943,32.21 28.943,31.697C28.943,31.278 28.822,30.955 28.579,30.752C28.336,30.55 27.944,30.441 27.404,30.441L26.203,30.441L26.203,34.586L27.067,34.586L27.067,32.993L27.485,32.993L28.363,34.586L29.335,34.586L28.242,32.763ZM27.904,32.17C27.783,32.277 27.621,32.331 27.392,32.331L27.067,32.331L27.067,31.116L27.378,31.116C27.621,31.116 27.796,31.157 27.904,31.252C28.025,31.332 28.08,31.494 28.08,31.711C28.08,31.913 28.025,32.061 27.904,32.17M28.242,32.763C28.714,32.574 28.943,32.21 28.943,31.697C28.943,31.278 28.822,30.955 28.579,30.752C28.336,30.55 27.944,30.441 27.404,30.441L26.203,30.441L26.203,34.586L27.067,34.586L27.067,32.993L27.485,32.993L28.363,34.586L29.335,34.586L28.242,32.763ZM27.904,32.17C27.783,32.277 27.621,32.331 27.392,32.331L27.067,32.331L27.067,31.116L27.378,31.116C27.621,31.116 27.796,31.157 27.904,31.252C28.025,31.332 28.08,31.494 28.08,31.711C28.08,31.913 28.025,32.061 27.904,32.17M28.242,32.763C28.714,32.574 28.943,32.21 28.943,31.697C28.943,31.278 28.822,30.955 28.579,30.752C28.336,30.55 27.944,30.441 27.404,30.441L26.203,30.441L26.203,34.586L27.067,34.586L27.067,32.993L27.485,32.993L28.363,34.586L29.335,34.586L28.242,32.763ZM27.904,32.17C27.783,32.277 27.621,32.331 27.392,32.331L27.067,32.331L27.067,31.116L27.378,31.116C27.621,31.116 27.796,31.157 27.904,31.252C28.025,31.332 28.08,31.494 28.08,31.711C28.08,31.913 28.025,32.061 27.904,32.17M28.242,32.763C28.714,32.574 28.943,32.21 28.943,31.697C28.943,31.278 28.822,30.955 28.579,30.752C28.336,30.55 27.944,30.441 27.404,30.441L26.203,30.441L26.203,34.586L27.067,34.586L27.067,32.993L27.485,32.993L28.363,34.586L29.335,34.586L28.242,32.763ZM27.904,32.17C27.783,32.277 27.621,32.331 27.392,32.331L27.067,32.331L27.067,31.116L27.378,31.116C27.621,31.116 27.796,31.157 27.904,31.252C28.025,31.332 28.08,31.494 28.08,31.711C28.08,31.913 28.025,32.061 27.904,32.17M28.242,32.763C28.714,32.574 28.943,32.21 28.943,31.697C28.943,31.278 28.822,30.955 28.579,30.752C28.336,30.55 27.944,30.441 27.404,30.441L26.203,30.441L26.203,34.586L27.067,34.586L27.067,32.993L27.485,32.993L28.363,34.586L29.335,34.586L28.242,32.763ZM27.904,32.17C27.783,32.277 27.621,32.331 27.392,32.331L27.067,32.331L27.067,31.116L27.378,31.116C27.621,31.116 27.796,31.157 27.904,31.252C28.025,31.332 28.08,31.494 28.08,31.711C28.08,31.913 28.025,32.061 27.904,32.17M28.242,32.763C28.714,32.574 28.943,32.21 28.943,31.697C28.943,31.278 28.822,30.955 28.579,30.752C28.336,30.55 27.944,30.441 27.404,30.441L26.203,30.441L26.203,34.586L27.067,34.586L27.067,32.993L27.485,32.993L28.363,34.586L29.335,34.586L28.242,32.763ZM27.904,32.17C27.783,32.277 27.621,32.331 27.392,32.331L27.067,32.331L27.067,31.116L27.378,31.116C27.621,31.116 27.796,31.157 27.904,31.252C28.025,31.332 28.08,31.494 28.08,31.711C28.08,31.913 28.025,32.061 27.904,32.17M28.242,32.763C28.714,32.574 28.943,32.21 28.943,31.697C28.943,31.278 28.822,30.955 28.579,30.752C28.336,30.55 27.944,30.441 27.404,30.441L26.203,30.441L26.203,34.586L27.067,34.586L27.067,32.993L27.485,32.993L28.363,34.586L29.335,34.586L28.242,32.763ZM27.904,32.17C27.783,32.277 27.621,32.331 27.392,32.331L27.067,32.331L27.067,31.116L27.378,31.116C27.621,31.116 27.796,31.157 27.904,31.252C28.025,31.332 28.08,31.494 28.08,31.711C28.08,31.913 28.025,32.061 27.904,32.17M28.242,32.763C28.714,32.574 28.943,32.21 28.943,31.697C28.943,31.278 28.822,30.955 28.579,30.752C28.336,30.55 27.944,30.441 27.404,30.441L26.203,30.441L26.203,34.586L27.067,34.586L27.067,32.993L27.485,32.993L28.363,34.586L29.335,34.586L28.242,32.763ZM27.904,32.17C27.783,32.277 27.621,32.331 27.392,32.331L27.067,32.331L27.067,31.116L27.378,31.116C27.621,31.116 27.796,31.157 27.904,31.252C28.025,31.332 28.08,31.494 28.08,31.711C28.08,31.913 28.025,32.061 27.904,32.17M28.242,32.763C28.714,32.574 28.943,32.21 28.943,31.697C28.943,31.278 28.822,30.955 28.579,30.752C28.336,30.55 27.944,30.441 27.404,30.441L26.203,30.441L26.203,34.586L27.067,34.586L27.067,32.993L27.485,32.993L28.363,34.586L29.335,34.586L28.242,32.763ZM27.904,32.17C27.783,32.277 27.621,32.331 27.392,32.331L27.067,32.331L27.067,31.116L27.378,31.116C27.621,31.116 27.796,31.157 27.904,31.252C28.025,31.332 28.08,31.494 28.08,31.711C28.08,31.913 28.025,32.061 27.904,32.17M28.242,32.763C28.714,32.574 28.943,32.21 28.943,31.697C28.943,31.278 28.822,30.955 28.579,30.752C28.336,30.55 27.944,30.441 27.404,30.441L26.203,30.441L26.203,34.586L27.067,34.586L27.067,32.993L27.485,32.993L28.363,34.586L29.335,34.586L28.242,32.763ZM27.904,32.17C27.783,32.277 27.621,32.331 27.392,32.331L27.067,32.331L27.067,31.116L27.378,31.116C27.621,31.116 27.796,31.157 27.904,31.252C28.025,31.332 28.08,31.494 28.08,31.711C28.08,31.913 28.025,32.061 27.904,32.17M28.242,32.763C28.714,32.574 28.943,32.21 28.943,31.697C28.943,31.278 28.822,30.955 28.579,30.752C28.336,30.55 27.944,30.441 27.404,30.441L26.203,30.441L26.203,34.586L27.067,34.586L27.067,32.993L27.485,32.993L28.363,34.586L29.335,34.586L28.242,32.763ZM27.904,32.17C27.783,32.277 27.621,32.331 27.392,32.331L27.067,32.331L27.067,31.116L27.378,31.116C27.621,31.116 27.796,31.157 27.904,31.252C28.025,31.332 28.08,31.494 28.08,31.711C28.08,31.913 28.025,32.061 27.904,32.17M28.242,32.763C28.714,32.574 28.943,32.21 28.943,31.697C28.943,31.278 28.822,30.955 28.579,30.752C28.336,30.55 27.944,30.441 27.404,30.441L26.203,30.441L26.203,34.586L27.067,34.586L27.067,32.993L27.485,32.993L28.363,34.586L29.335,34.586L28.242,32.763Z" style="fill-rule:nonzero;"/>
                </g>
                <g transform="matrix(1,0,0,1,291.031,368.928)">
                    <path d="M0,10.97L-2.294,10.97L-0.383,1.937L-3.031,1.937L-2.617,0L4.979,0L4.565,1.937L1.911,1.937L0,10.97Z" style="fill-rule:nonzero;"/>
                </g>
                <g transform="matrix(1,0,0,1,300.146,378.421)">
                    <path d="M0,-5.44C-0.441,-5.44 -0.857,-5.24 -1.248,-4.839C-1.639,-4.44 -1.896,-3.952 -2.015,-3.377L-1.677,-3.377C-0.9,-3.377 -0.294,-3.498 0.139,-3.74C0.573,-3.983 0.79,-4.312 0.79,-4.727C0.79,-5.202 0.526,-5.44 0,-5.44M-1.233,1.628C-2.286,1.628 -3.104,1.345 -3.685,0.781C-4.266,0.215 -4.557,-0.583 -4.557,-1.613C-4.557,-2.649 -4.35,-3.592 -3.937,-4.446C-3.523,-5.298 -2.963,-5.949 -2.256,-6.396C-1.549,-6.844 -0.75,-7.068 0.144,-7.068C1.03,-7.068 1.723,-6.864 2.219,-6.457C2.715,-6.049 2.963,-5.49 2.963,-4.779C2.963,-3.843 2.545,-3.123 1.707,-2.615C0.87,-2.107 -0.326,-1.853 -1.88,-1.853L-2.264,-1.853L-2.279,-1.695L-2.279,-1.546C-2.279,-1.09 -2.149,-0.732 -1.891,-0.469C-1.633,-0.207 -1.263,-0.075 -0.782,-0.075C-0.346,-0.075 0.051,-0.123 0.406,-0.218C0.762,-0.313 1.194,-0.48 1.7,-0.72L1.7,0.983C0.837,1.414 -0.14,1.628 -1.233,1.628" style="fill-rule:nonzero;"/>
                </g>
                <g transform="matrix(1,0,0,1,307.299,371.353)">
                    <path d="M0,8.696C-1.008,8.696 -1.781,8.427 -2.32,7.889C-2.86,7.351 -3.129,6.592 -3.129,5.612C-3.129,4.551 -2.942,3.588 -2.569,2.719C-2.195,1.851 -1.67,1.181 -0.993,0.709C-0.316,0.236 0.456,0 1.323,0C2.236,0 3.058,0.179 3.791,0.54L3.099,2.259C2.828,2.143 2.562,2.043 2.301,1.958C2.041,1.873 1.745,1.831 1.414,1.831C0.987,1.831 0.603,1.99 0.259,2.311C-0.084,2.631 -0.353,3.069 -0.545,3.628C-0.738,4.185 -0.835,4.784 -0.835,5.425C-0.835,5.905 -0.721,6.266 -0.493,6.508C-0.264,6.752 0.053,6.873 0.458,6.873C0.839,6.873 1.193,6.814 1.519,6.696C1.845,6.579 2.181,6.432 2.526,6.258L2.526,8.103C1.765,8.499 0.922,8.696 0,8.696" style="fill-rule:nonzero;"/>
                </g>
                <g transform="matrix(1,0,0,1,318.279,368.222)">
                    <path d="M0,11.676L-2.263,11.676L-1.233,6.777C-1.153,6.437 -1.113,6.139 -1.113,5.883C-1.113,5.269 -1.384,4.961 -1.925,4.961C-2.386,4.961 -2.805,5.245 -3.181,5.817C-3.557,6.386 -3.853,7.182 -4.069,8.201L-4.806,11.676L-7.069,11.676L-4.588,0L-2.324,0C-2.52,0.906 -2.669,1.602 -2.775,2.087C-2.881,2.572 -3.096,3.346 -3.421,4.405L-3.362,4.405C-3.051,4.021 -2.705,3.711 -2.324,3.479C-1.943,3.246 -1.502,3.13 -1,3.13C-0.308,3.13 0.227,3.339 0.606,3.757C0.984,4.174 1.173,4.771 1.173,5.546C1.173,5.911 1.116,6.362 1,6.896L0,11.676Z" style="fill-rule:nonzero;"/>
                </g>
                <g transform="matrix(1,0,0,1,328.161,374.737)">
                    <path d="M0,-0.646L0.422,-0.646C1.133,-0.646 1.694,-0.819 2.102,-1.164C2.511,-1.508 2.715,-1.971 2.715,-2.551C2.715,-3.453 2.227,-3.903 1.249,-3.903L0.692,-3.903L0,-0.646ZM5.024,-2.611C5.024,-1.406 4.6,-0.459 3.75,0.229C2.899,0.916 1.728,1.26 0.233,1.26L-0.413,1.26L-1.233,5.162L-3.527,5.162L-1.203,-5.808L1.339,-5.808C2.552,-5.808 3.47,-5.542 4.092,-5.009C4.713,-4.476 5.024,-3.677 5.024,-2.611" style="fill-rule:nonzero;"/>
                </g>
                <g transform="matrix(1,0,0,1,339.502,379.899)">
                    <path d="M0,-8.546C0.296,-8.546 0.537,-8.519 0.722,-8.463L0.226,-6.287C0,-6.367 -0.25,-6.408 -0.526,-6.408C-1.108,-6.408 -1.618,-6.179 -2.057,-5.721C-2.496,-5.263 -2.808,-4.607 -2.993,-3.752L-3.79,0L-6.054,0L-4.271,-8.389L-2.542,-8.389L-2.7,-6.835L-2.654,-6.835C-1.917,-7.977 -1.033,-8.546 0,-8.546" style="fill-rule:nonzero;"/>
                </g>
                <g transform="matrix(1,0,0,1,345.707,376.725)">
                    <path d="M0,-2.048C0,-3.034 -0.358,-3.527 -1.075,-3.527C-1.452,-3.527 -1.789,-3.374 -2.087,-3.069C-2.386,-2.763 -2.628,-2.317 -2.816,-1.726C-3.005,-1.136 -3.099,-0.527 -3.099,0.098C-3.099,1.023 -2.723,1.486 -1.97,1.486C-1.595,1.486 -1.256,1.332 -0.955,1.024C-0.655,0.717 -0.42,0.289 -0.252,-0.258C-0.084,-0.807 0,-1.403 0,-2.048M2.279,-2.048C2.279,-0.993 2.102,-0.058 1.749,0.758C1.395,1.574 0.885,2.205 0.218,2.652C-0.449,3.099 -1.242,3.324 -2.159,3.324C-3.136,3.324 -3.917,3.03 -4.501,2.442C-5.086,1.854 -5.377,1.073 -5.377,0.098C-5.377,-0.968 -5.198,-1.917 -4.84,-2.75C-4.481,-3.582 -3.964,-4.229 -3.287,-4.686C-2.61,-5.144 -1.818,-5.372 -0.91,-5.372C0.072,-5.372 0.85,-5.077 1.421,-4.487C1.993,-3.897 2.279,-3.084 2.279,-2.048" style="fill-rule:nonzero;"/>
                </g>
                <g transform="matrix(1,0,0,1,352.529,371.548)">
                    <path d="M0,6.678C0.326,6.678 0.732,6.59 1.219,6.415L1.219,8.104C0.662,8.368 -0.005,8.501 -0.782,8.501C-1.534,8.501 -2.087,8.344 -2.44,8.029C-2.793,7.713 -2.97,7.226 -2.97,6.566C-2.97,6.315 -2.94,6.035 -2.88,5.725L-2.016,1.68L-3.158,1.68L-2.94,0.577L-1.466,-0.052L-0.474,-1.823L0.985,-1.823L0.616,-0.037L2.745,-0.037L2.369,1.68L0.248,1.68L-0.616,5.725C-0.646,5.875 -0.662,6.008 -0.662,6.122C-0.662,6.493 -0.441,6.678 0,6.678" style="fill-rule:nonzero;"/>
                </g>
                <g transform="matrix(1,0,0,1,360.214,378.421)">
                    <path d="M0,-5.44C-0.441,-5.44 -0.857,-5.24 -1.249,-4.839C-1.639,-4.44 -1.896,-3.952 -2.016,-3.377L-1.677,-3.377C-0.9,-3.377 -0.294,-3.498 0.139,-3.74C0.573,-3.983 0.79,-4.312 0.79,-4.727C0.79,-5.202 0.526,-5.44 0,-5.44M-1.233,1.628C-2.286,1.628 -3.104,1.345 -3.685,0.781C-4.266,0.215 -4.558,-0.583 -4.558,-1.613C-4.558,-2.649 -4.351,-3.592 -3.937,-4.446C-3.523,-5.298 -2.963,-5.949 -2.256,-6.396C-1.549,-6.844 -0.75,-7.068 0.143,-7.068C1.03,-7.068 1.723,-6.864 2.218,-6.457C2.715,-6.049 2.963,-5.49 2.963,-4.779C2.963,-3.843 2.545,-3.123 1.707,-2.615C0.87,-2.107 -0.326,-1.853 -1.88,-1.853L-2.264,-1.853L-2.279,-1.695L-2.279,-1.546C-2.279,-1.09 -2.149,-0.732 -1.892,-0.469C-1.633,-0.207 -1.263,-0.075 -0.782,-0.075C-0.346,-0.075 0.05,-0.123 0.406,-0.218C0.762,-0.313 1.194,-0.48 1.7,-0.72L1.7,0.983C0.837,1.414 -0.14,1.628 -1.233,1.628" style="fill-rule:nonzero;"/>
                </g>
                <g transform="matrix(1,0,0,1,367.367,371.353)">
                    <path d="M0,8.696C-1.008,8.696 -1.781,8.427 -2.32,7.889C-2.86,7.351 -3.129,6.592 -3.129,5.612C-3.129,4.551 -2.942,3.588 -2.569,2.719C-2.195,1.851 -1.67,1.181 -0.993,0.709C-0.316,0.236 0.456,0 1.323,0C2.236,0 3.058,0.179 3.791,0.54L3.099,2.259C2.828,2.143 2.562,2.043 2.301,1.958C2.041,1.873 1.745,1.831 1.414,1.831C0.987,1.831 0.603,1.99 0.259,2.311C-0.084,2.631 -0.353,3.069 -0.545,3.628C-0.738,4.185 -0.835,4.784 -0.835,5.425C-0.835,5.905 -0.721,6.266 -0.493,6.508C-0.265,6.752 0.053,6.873 0.458,6.873C0.839,6.873 1.193,6.814 1.519,6.696C1.845,6.579 2.181,6.432 2.526,6.258L2.526,8.103C1.764,8.499 0.922,8.696 0,8.696" style="fill-rule:nonzero;"/>
                </g>
                <g transform="matrix(1,0,0,1,374.865,371.548)">
                    <path d="M0,6.678C0.326,6.678 0.732,6.59 1.219,6.415L1.219,8.104C0.662,8.368 -0.005,8.501 -0.782,8.501C-1.534,8.501 -2.087,8.344 -2.44,8.029C-2.793,7.713 -2.97,7.226 -2.97,6.566C-2.97,6.315 -2.94,6.035 -2.88,5.725L-2.016,1.68L-3.158,1.68L-2.94,0.577L-1.466,-0.052L-0.474,-1.823L0.985,-1.823L0.616,-0.037L2.745,-0.037L2.369,1.68L0.248,1.68L-0.616,5.725C-0.646,5.875 -0.662,6.008 -0.662,6.122C-0.662,6.493 -0.441,6.678 0,6.678" style="fill-rule:nonzero;"/>
                </g>
                <g transform="matrix(1,0,0,1,379.739,378.578)">
                    <path d="M0,-9.034C0,-9.469 0.119,-9.798 0.357,-10.02C0.595,-10.243 0.933,-10.354 1.369,-10.354C1.734,-10.354 2.013,-10.276 2.204,-10.122C2.394,-9.967 2.489,-9.744 2.489,-9.454C2.489,-9.054 2.379,-8.73 2.159,-8.482C1.938,-8.235 1.597,-8.11 1.135,-8.11C0.378,-8.11 0,-8.419 0,-9.034M0.12,1.32L-2.144,1.32L-0.361,-7.068L1.902,-7.068L0.12,1.32Z" style="fill-rule:nonzero;"/>
                </g>
                <g transform="matrix(1,0,0,1,387.944,376.725)">
                    <path d="M0,-2.048C0,-3.034 -0.358,-3.527 -1.075,-3.527C-1.452,-3.527 -1.789,-3.374 -2.087,-3.069C-2.386,-2.763 -2.628,-2.317 -2.816,-1.726C-3.005,-1.136 -3.099,-0.527 -3.099,0.098C-3.099,1.023 -2.723,1.486 -1.97,1.486C-1.595,1.486 -1.256,1.332 -0.955,1.024C-0.655,0.717 -0.42,0.289 -0.252,-0.258C-0.084,-0.807 0,-1.403 0,-2.048M2.279,-2.048C2.279,-0.993 2.102,-0.058 1.749,0.758C1.395,1.574 0.885,2.205 0.218,2.652C-0.449,3.099 -1.242,3.324 -2.159,3.324C-3.136,3.324 -3.917,3.03 -4.501,2.442C-5.086,1.854 -5.377,1.073 -5.377,0.098C-5.377,-0.968 -5.198,-1.917 -4.84,-2.75C-4.481,-3.582 -3.964,-4.229 -3.287,-4.686C-2.61,-5.144 -1.818,-5.372 -0.91,-5.372C0.072,-5.372 0.85,-5.077 1.421,-4.487C1.993,-3.897 2.279,-3.084 2.279,-2.048" style="fill-rule:nonzero;"/>
                </g>
                <g transform="matrix(1,0,0,1,398.247,371.352)">
                    <path d="M0,8.546L-2.263,8.546L-1.233,3.647C-1.152,3.307 -1.113,3.009 -1.113,2.753C-1.113,2.139 -1.384,1.831 -1.925,1.831C-2.386,1.831 -2.805,2.115 -3.181,2.687C-3.557,3.256 -3.853,4.052 -4.069,5.071L-4.806,8.546L-7.069,8.546L-5.287,0.157L-3.557,0.157L-3.715,1.711L-3.67,1.711C-2.938,0.57 -2.048,0 -1,0C-0.308,0 0.228,0.209 0.605,0.627C0.984,1.044 1.173,1.641 1.173,2.416C1.173,2.781 1.116,3.232 1.001,3.766L0,8.546Z" style="fill-rule:nonzero;"/>
                </g>
                <g transform="matrix(1,0,0,1,408.19,375.029)">
                    <path d="M0,-1.23L0.587,-1.23C1.244,-1.23 1.755,-1.374 2.121,-1.658C2.487,-1.943 2.67,-2.377 2.67,-2.963C2.67,-3.374 2.551,-3.681 2.313,-3.886C2.074,-4.091 1.7,-4.195 1.188,-4.195L0.632,-4.195L0,-1.23ZM-0.398,0.661L-1.293,4.87L-3.587,4.87L-1.264,-6.1L1.437,-6.1C2.625,-6.1 3.518,-5.845 4.114,-5.334C4.711,-4.825 5.009,-4.077 5.009,-3.091C5.009,-2.301 4.801,-1.622 4.385,-1.054C3.969,-0.486 3.37,-0.065 2.587,0.21L4.551,4.87L2.054,4.87L0.496,0.661L-0.398,0.661Z" style="fill-rule:nonzero;"/>
                </g>
                <g transform="matrix(1,0,0,1,418.816,378.421)">
                    <path d="M0,-5.44C-0.441,-5.44 -0.857,-5.24 -1.248,-4.839C-1.64,-4.44 -1.896,-3.952 -2.016,-3.377L-1.678,-3.377C-0.9,-3.377 -0.295,-3.498 0.139,-3.74C0.572,-3.983 0.79,-4.312 0.79,-4.727C0.79,-5.202 0.526,-5.44 0,-5.44M-1.233,1.628C-2.286,1.628 -3.104,1.345 -3.685,0.781C-4.267,0.215 -4.558,-0.583 -4.558,-1.613C-4.558,-2.649 -4.351,-3.592 -3.938,-4.446C-3.523,-5.298 -2.963,-5.949 -2.256,-6.396C-1.55,-6.844 -0.75,-7.068 0.143,-7.068C1.03,-7.068 1.723,-6.864 2.219,-6.457C2.715,-6.049 2.963,-5.49 2.963,-4.779C2.963,-3.843 2.545,-3.123 1.707,-2.615C0.869,-2.107 -0.326,-1.853 -1.88,-1.853L-2.264,-1.853L-2.279,-1.695L-2.279,-1.546C-2.279,-1.09 -2.149,-0.732 -1.892,-0.469C-1.633,-0.207 -1.264,-0.075 -0.782,-0.075C-0.347,-0.075 0.05,-0.123 0.406,-0.218C0.762,-0.313 1.193,-0.48 1.7,-0.72L1.7,0.983C0.837,1.414 -0.141,1.628 -1.233,1.628" style="fill-rule:nonzero;"/>
                </g>
                <g transform="matrix(1,0,0,1,425.585,373.769)">
                    <path d="M0,3.871C0.276,3.106 0.507,2.549 0.692,2.198L2.926,-2.259L5.354,-2.259L0.812,6.13L-1.616,6.13L-2.654,-2.259L-0.436,-2.259L-0.098,2.139C-0.062,2.804 -0.045,3.381 -0.045,3.871L0,3.871Z" style="fill-rule:nonzero;"/>
                </g>
                <g transform="matrix(1,0,0,1,436.106,376.725)">
                    <path d="M0,-2.048C0,-3.034 -0.357,-3.527 -1.075,-3.527C-1.451,-3.527 -1.788,-3.374 -2.087,-3.069C-2.385,-2.763 -2.628,-2.317 -2.815,-1.726C-3.004,-1.136 -3.099,-0.527 -3.099,0.098C-3.099,1.023 -2.722,1.486 -1.97,1.486C-1.594,1.486 -1.256,1.332 -0.954,1.024C-0.654,0.717 -0.42,0.289 -0.252,-0.258C-0.084,-0.807 0,-1.403 0,-2.048M2.279,-2.048C2.279,-0.993 2.103,-0.058 1.749,0.758C1.396,1.574 0.886,2.205 0.219,2.652C-0.448,3.099 -1.241,3.324 -2.158,3.324C-3.136,3.324 -3.917,3.03 -4.501,2.442C-5.085,1.854 -5.377,1.073 -5.377,0.098C-5.377,-0.968 -5.197,-1.917 -4.84,-2.75C-4.481,-3.582 -3.963,-4.229 -3.286,-4.686C-2.609,-5.144 -1.817,-5.372 -0.909,-5.372C0.073,-5.372 0.851,-5.077 1.422,-4.487C1.994,-3.897 2.279,-3.084 2.279,-2.048" style="fill-rule:nonzero;"/>
                </g>
                <g transform="matrix(-1,-0,-0,1,441.822,368.222)">
                    <path d="M0.217,11.676L2.481,11.676L-0.001,0L-2.264,0L0.217,11.676Z" style="fill-rule:nonzero;"/>
                </g>
                <g transform="matrix(1,0,0,1,445.606,380.049)">
                    <path d="M0,-8.539L2.264,-8.539L1.233,-3.639C1.152,-3.299 1.113,-3.001 1.113,-2.746C1.113,-2.131 1.384,-1.823 1.925,-1.823C2.387,-1.823 2.805,-2.108 3.181,-2.679C3.558,-3.248 3.854,-4.044 4.068,-5.064L4.806,-8.539L7.069,-8.539L5.287,-0.15L3.558,-0.15L3.715,-1.703L3.67,-1.703C2.942,-0.567 2.053,0 1,0C0.308,0 -0.221,-0.207 -0.587,-0.619C-0.953,-1.031 -1.136,-1.629 -1.136,-2.408C-1.136,-2.874 -1.075,-3.406 -0.955,-4.007L0,-8.539Z" style="fill-rule:nonzero;"/>
                </g>
                <g transform="matrix(1,0,0,1,456.804,371.548)">
                    <path d="M0,6.678C0.326,6.678 0.732,6.59 1.219,6.415L1.219,8.104C0.662,8.368 -0.005,8.501 -0.782,8.501C-1.534,8.501 -2.087,8.344 -2.44,8.029C-2.793,7.713 -2.97,7.226 -2.97,6.566C-2.97,6.315 -2.94,6.035 -2.88,5.725L-2.016,1.68L-3.158,1.68L-2.94,0.577L-1.466,-0.052L-0.474,-1.823L0.985,-1.823L0.617,-0.037L2.745,-0.037L2.369,1.68L0.249,1.68L-0.616,5.725C-0.646,5.875 -0.662,6.008 -0.662,6.122C-0.662,6.493 -0.441,6.678 0,6.678" style="fill-rule:nonzero;"/>
                </g>
                <g transform="matrix(1,0,0,1,461.678,378.578)">
                    <path d="M0,-9.034C0,-9.469 0.119,-9.798 0.357,-10.02C0.595,-10.243 0.933,-10.354 1.368,-10.354C1.734,-10.354 2.013,-10.276 2.203,-10.122C2.395,-9.967 2.489,-9.744 2.489,-9.454C2.489,-9.054 2.379,-8.73 2.158,-8.482C1.937,-8.235 1.597,-8.11 1.135,-8.11C0.378,-8.11 0,-8.419 0,-9.034M0.12,1.32L-2.144,1.32L-0.361,-7.068L1.902,-7.068L0.12,1.32Z" style="fill-rule:nonzero;"/>
                </g>
                <g transform="matrix(1,0,0,1,469.883,376.725)">
                    <path d="M0,-2.048C0,-3.034 -0.359,-3.527 -1.075,-3.527C-1.452,-3.527 -1.789,-3.374 -2.088,-3.069C-2.386,-2.763 -2.629,-2.317 -2.816,-1.726C-3.005,-1.136 -3.099,-0.527 -3.099,0.098C-3.099,1.023 -2.723,1.486 -1.971,1.486C-1.595,1.486 -1.256,1.332 -0.955,1.024C-0.655,0.717 -0.421,0.289 -0.253,-0.258C-0.085,-0.807 0,-1.403 0,-2.048M2.278,-2.048C2.278,-0.993 2.102,-0.058 1.748,0.758C1.395,1.574 0.885,2.205 0.218,2.652C-0.449,3.099 -1.242,3.324 -2.159,3.324C-3.137,3.324 -3.918,3.03 -4.502,2.442C-5.086,1.854 -5.378,1.073 -5.378,0.098C-5.378,-0.968 -5.198,-1.917 -4.84,-2.75C-4.481,-3.582 -3.964,-4.229 -3.287,-4.686C-2.61,-5.144 -1.818,-5.372 -0.91,-5.372C0.072,-5.372 0.85,-5.077 1.421,-4.487C1.993,-3.897 2.278,-3.084 2.278,-2.048" style="fill-rule:nonzero;"/>
                </g>
                <g transform="matrix(1,0,0,1,480.185,371.352)">
                    <path d="M0,8.546L-2.263,8.546L-1.233,3.647C-1.152,3.307 -1.112,3.009 -1.112,2.753C-1.112,2.139 -1.383,1.831 -1.925,1.831C-2.386,1.831 -2.805,2.115 -3.181,2.687C-3.558,3.256 -3.853,4.052 -4.068,5.071L-4.806,8.546L-7.069,8.546L-5.287,0.157L-3.558,0.157L-3.715,1.711L-3.67,1.711C-2.938,0.57 -2.048,0 -1,0C-0.308,0 0.228,0.209 0.606,0.627C0.984,1.044 1.173,1.641 1.173,2.416C1.173,2.781 1.116,3.232 1.001,3.766L0,8.546Z" style="fill-rule:nonzero;"/>
                </g>
            </g>
        </g>
    </g>
</svg>
